:SAMPLES-PER-SECOND 30
:FRAME-RANGE 1-3549
:FULLY-SPECIFIED
:DEGREES
1553
root  11.7375 38.546 26.6452 177.421 37.7545 178.352
RightUpLeg  -8.84962 -4.51575 -9.03767
RightLeg  57.9512 2.82846 4.4354
RightFoot  5.44697 -3.01981 20.5187
RightToes  -1.11029e-010 1.2921e-014 -6.02303e-014
Spine  5.40779 2.40641 -4.7139
Spine1  -1.08923 2.29105 -5.8211
HEad  -8.63203 42.8684 -8.43419
LeftShoulder1  0.872915 1.30684 -33.6485
LeftArm  2.43976 10.1991 -31.8553
LeftForeArm  15.5399 -32.1387 -6.20011
LeftHand  -0.38226 0.619014 9.31353
RightShoulder  5.20833 4.95859 53.8339
RightArm  19.2825 -6.63879 14.4064
RightForeArm  17.2909 0.527227 17.7264
RightHand  -0.344495 4.56332 -4.30287
LeftUpLeg  -8.80006 6.95547 -10.1797
LeftLeg  22.0209 31.6409 7.30969
LeftFoot  -14.4946 0.222595 4.91797
LeftToes  -1.9349e-011 -1.19469e-011 -2.02219e-012
1554
root  12.0914 38.6231 26.3128 178.084 35.1215 178.876
RightUpLeg  -12.6991 -0.636872 -8.11575
RightLeg  59.8522 -1.40972 -3.1058
RightFoot  5.3057 -2.15659 14.9142
RightToes  -1.11029e-010 1.2921e-014 -6.02303e-014
Spine  5.75906 1.73063 -4.74759
Spine1  -1.09034 1.63547 -5.68304
HEad  -10.4611 42.5369 -9.94646
LeftShoulder1  0.965544 1.10293 -34.1294
LeftArm  13.4221 9.74681 -34.1654
LeftForeArm  4.62802 -24.3478 -4.96783
LeftHand  -0.381678 0.579379 9.22638
RightShoulder  4.99269 4.69372 53.2992
RightArm  19.4459 -6.85835 14.652
RightForeArm  16.3661 1.24442 17.6071
RightHand  -0.298505 4.54784 -3.7723
LeftUpLeg  -7.84447 6.63168 -9.78809
LeftLeg  20.988 29.5518 6.37093
LeftFoot  -14.8981 0.235763 4.70621
LeftToes  -1.9349e-011 -1.19469e-011 -2.02219e-012
1555
root  12.4152 38.7468 25.9448 179.087 32.1682 179.754
RightUpLeg  -16.1691 2.69037 -7.18007
RightLeg  59.445 -4.72784 -9.05903
RightFoot  4.27068 -1.22739 9.14888
RightToes  -1.11029e-010 1.2921e-014 -6.02303e-014
Spine  6.04227 1.08373 -4.48449
Spine1  -1.36343 1.0225 -5.13585
HEad  -11.918 41.7075 -10.6003
LeftShoulder1  1.06117 0.895172 -34.5888
LeftArm  11.8511 8.0211 -35.4428
LeftForeArm  6.76592 -14.2562 -11.7437
LeftHand  -0.286853 0.498473 6.81455
RightShoulder  4.81484 4.54303 52.3985
RightArm  20.7935 -7.0331 14.8162
RightForeArm  14.5342 2.29042 17.5241
RightHand  -0.270002 4.43951 -3.4711
LeftUpLeg  -6.80418 6.59967 -8.98186
LeftLeg  19.39 26.7719 4.94649
LeftFoot  -15.0885 0.250792 4.89057
LeftToes  -1.9349e-011 -1.19469e-011 -2.02219e-012
1556
root  12.728 38.8874 25.5587 -179.877 28.6924 -179.223
RightUpLeg  -18.8565 4.69483 -6.4344
RightLeg  56.4162 -7.07319 -11.7107
RightFoot  2.01934 -0.746422 6.48353
RightToes  -1.11029e-010 1.2921e-014 -6.02303e-014
Spine  6.21769 0.419937 -4.29406
Spine1  -1.42996 0.349013 -4.10259
HEad  -13.0208 40.4413 -10.4976
LeftShoulder1  1.20267 0.584008 -35.0954
LeftArm  5.68072 6.08849 -36.1007
LeftForeArm  11.4632 -3.39422 -17.1331
LeftHand  -0.149956 0.783765 3.71843
RightShoulder  4.72759 4.53611 51.5186
RightArm  20.473 -7.03898 14.7226
RightForeArm  14.6837 2.84334 17.3087
RightHand  -0.242091 4.39867 -3.15244
LeftUpLeg  -5.66993 6.65103 -7.82883
LeftLeg  17.6495 23.0805 3.26591
LeftFoot  -15.2774 0.248455 4.55561
LeftToes  -1.9349e-011 -1.19469e-011 -2.02219e-012
1557
root  13.0201 39.0159 25.1554 -179.055 25.2499 -178.307
RightUpLeg  -20.7487 5.89997 -5.97626
RightLeg  50.6431 -7.88405 -10.5087
RightFoot  0.725257 -0.752076 7.15311
RightToes  -1.11029e-010 1.2921e-014 -6.02303e-014
Spine  6.73789 -0.189055 -4.01538
Spine1  -1.64193 -0.24021 -3.22411
HEad  -14.2217 39.1051 -9.91953
LeftShoulder1  1.32095 0.315984 -35.3415
LeftArm  10.112 5.90101 -36.9215
LeftForeArm  6.07958 0.455646 -18.768
LeftHand  0.0053953 1.30627 -0.360987
RightShoulder  4.69946 4.56902 51.014
RightArm  20.8185 -6.49571 14.2411
RightForeArm  14.5329 3.1932 17.2481
RightHand  -0.245908 4.30089 -3.22382
LeftUpLeg  -4.61193 6.77372 -6.67699
LeftLeg  16.2959 19.678 2.00644
LeftFoot  -15.4674 0.262501 4.70346
LeftToes  -1.9349e-011 -1.19469e-011 -2.02219e-012
1558
root  13.3038 39.1158 24.7402 -178.373 22.0837 -177.594
RightUpLeg  -22.0118 6.03834 -5.6458
RightLeg  42.7223 -7.81494 -7.93777
RightFoot  0.531453 -0.995558 9.58801
RightToes  -1.11029e-010 1.2921e-014 -6.02303e-014
Spine  7.45819 -0.629571 -3.71512
Spine1  -1.87581 -0.625715 -2.53971
HEad  -15.8292 37.695 -9.63666
LeftShoulder1  1.3498 0.244462 -35.3191
LeftArm  8.60684 7.92724 -36.8215
LeftForeArm  5.93543 0.76523 -18.7195
LeftHand  0.142385 1.36945 -4.39469
RightShoulder  4.72311 4.66944 50.6461
RightArm  19.1113 -5.67543 13.6371
RightForeArm  15.453 2.75878 17.214
RightHand  -0.235484 4.30858 -3.0971
LeftUpLeg  -3.74976 6.8718 -5.57834
LeftLeg  15.399 16.2669 0.993761
LeftFoot  -15.7436 0.27378 4.65828
LeftToes  -1.9349e-011 -1.19469e-011 -2.02219e-012
1559
root  13.5749 39.218 24.2785 -177.631 19.4699 -177.019
RightUpLeg  -22.7947 5.25593 -5.17864
RightLeg  33.2829 -7.1873 -5.2885
RightFoot  1.0346 -1.23144 11.3883
RightToes  -1.11029e-010 1.2921e-014 -6.02303e-014
Spine  7.71131 -0.758675 -3.0556
Spine1  -1.69982 -0.611424 -2.13551
HEad  -17.2198 36.0403 -9.5371
LeftShoulder1  1.3137 0.315758 -35.1163
LeftArm  5.39529 10.4523 -36.0214
LeftForeArm  7.33449 -0.151642 -18.2135
LeftHand  0.293501 1.03333 -8.06782
RightShoulder  4.75771 4.77518 50.3684
RightArm  16.4198 -4.87086 12.9088
RightForeArm  16.1192 2.11598 17.1587
RightHand  -0.21858 4.22308 -2.91533
LeftUpLeg  -2.91628 6.84484 -4.65423
LeftLeg  14.2307 13.7185 0.25637
LeftFoot  -15.7879 0.28163 4.80678
LeftToes  -1.9349e-011 -1.19469e-011 -2.02219e-012
1560
root  13.8321 39.3099 23.7629 -176.74 17.4034 -176.586
RightUpLeg  -23.2417 3.81073 -4.487
RightLeg  22.8321 -6.25332 -3.09085
RightFoot  1.72298 -1.28894 11.3257
RightToes  -1.11029e-010 1.2921e-014 -6.02303e-014
Spine  7.62773 -0.621265 -1.99678
Spine1  -1.5413 -0.257715 -2.11896
HEad  -17.8183 34.2015 -9.20989
LeftShoulder1  1.25811 0.421867 -34.7368
LeftArm  5.49259 12.5168 -35.0464
LeftForeArm  7.57862 -1.36532 -17.9429
LeftHand  0.355238 0.879437 -9.36473
RightShoulder  4.86804 5.00487 50.1455
RightArm  13.239 -4.42748 12.0946
RightForeArm  16.4745 1.42354 17.0485
RightHand  -0.198095 4.07255 -2.70092
LeftUpLeg  -2.1323 6.84128 -3.77698
LeftLeg  12.8815 11.3138 -0.560941
LeftFoot  -15.7089 0.287696 5.06458
LeftToes  -1.9349e-011 -1.19469e-011 -2.02219e-012
1561
root  14.0914 39.3367 23.1811 -175.96 15.5336 -176.602
RightUpLeg  -23.074 -0.302671 -3.07226
RightLeg  11.9439 -5.54131 -1.60136
RightFoot  2.46949 -1.37881 11.4892
RightToes  -1.11029e-010 1.2921e-014 -6.02303e-014
Spine  7.55081 -0.421733 -1.36269
Spine1  -1.66342 0.0799936 -2.0464
HEad  -17.6719 32.5617 -8.66232
LeftShoulder1  1.21922 0.496052 -34.4546
LeftArm  7.31506 14.551 -33.7411
LeftForeArm  6.34232 -3.20532 -17.6392
LeftHand  0.372947 0.759828 -9.54796
RightShoulder  4.96532 5.22979 49.8311
RightArm  11.1135 -3.97861 11.3172
RightForeArm  16.3572 0.850593 17.01
RightHand  -0.190098 3.95357 -2.62827
LeftUpLeg  -1.51116 6.6246 -3.47039
LeftLeg  11.8919 9.60149 -0.939927
LeftFoot  -15.9812 0.282274 4.59408
LeftToes  -1.9349e-011 -1.19469e-011 -2.02219e-012
1562
root  14.3669 39.2993 22.4967 -175.51 13.5406 -176.933
RightUpLeg  -22.3598 -2.81217 -2.87312
RightLeg  2.11176 -7.35889 1.14956
RightFoot  3.08197 -1.4748 11.7843
RightToes  -1.11029e-010 1.2921e-014 -6.02303e-014
Spine  7.45091 -0.294958 -1.07413
Spine1  -1.62908 0.255674 -1.85265
HEad  -16.9738 31.1991 -8.13042
LeftShoulder1  1.19785 0.523079 -34.1099
LeftArm  8.21225 16.3547 -32.4846
LeftForeArm  5.28539 -4.87544 -17.1839
LeftHand  0.357786 0.541911 -8.71765
RightShoulder  4.98108 5.33372 49.4028
RightArm  9.50387 -3.33745 10.7191
RightForeArm  16.6572 0.318289 16.9753
RightHand  -0.177004 3.93258 -2.46984
LeftUpLeg  -0.556204 6.65702 -3.37683
LeftLeg  11.1158 8.04605 -1.38725
LeftFoot  -16.4948 0.294644 4.34247
LeftToes  -1.9349e-011 -1.19469e-011 -2.02219e-012
1563
root  14.6876 39.1602 21.6857 -175.331 11.689 -177.464
RightUpLeg  -22.2364 -2.99629 -3.28055
RightLeg  -3.86701 -9.13347 2.90433
RightFoot  2.82063 -1.57856 12.8148
RightToes  -1.11029e-010 1.2921e-014 -6.02303e-014
Spine  7.00469 -0.268442 -0.989097
Spine1  -1.35917 0.41299 -1.99447
HEad  -16.4773 29.8915 -7.9956
LeftShoulder1  1.16733 0.577431 -33.816
LeftArm  7.95161 17.3445 -31.1068
LeftForeArm  5.18927 -5.72164 -16.8256
LeftHand  0.302913 0.358393 -7.09794
RightShoulder  5.13078 5.67555 48.9902
RightArm  7.65966 -2.89239 10.4092
RightForeArm  17.514 -0.144995 16.8322
RightHand  -0.173408 3.8964 -2.43216
LeftUpLeg  0.559437 6.72425 -3.30299
LeftLeg  11.1756 6.03496 -1.70313
LeftFoot  -17.6738 0.321132 3.88415
LeftToes  -1.9349e-011 -1.19469e-011 -2.02219e-012
